{"title":"THE SMURFS- 2. 2013.(NEW SOURCE TS XViD).R6.LINE-FANTA","uid":8938696,"size":1055898519,"categoryP":"video","categoryS":"movies","magnet":"?xt=urn:btih:96ac39b97bf054bfc23cb69dc964f7c93260c659&amp;dn=THE+SMURFS-+2.+2013.%28NEW+SOURCE+TS+XViD%29.R6.LINE-FANTA&amp;tr=udp%3A%2F%2Ftracker.openbittorrent.com%3A80&amp;tr=udp%3A%2F%2Fopen.demonii.com%3A1337&amp;tr=udp%3A%2F%2Ftracker.coppersurfer.tk%3A6969&amp;tr=udp%3A%2F%2Fexodus.desync.com%3A6969","seeders":1,"leechers":0,"uploader":"xxxlavalxxx","files":-1,"time":1379623810,"description":" &lt;a href=&quot;\nhttp://www.imdb.com/title/tt2017020/&quot; rel=&quot;nofollow&quot; target=&quot;_NEW&quot;&gt;\nhttp://www.imdb.com/title/tt2017020/&lt;/a&gt;\n\n\n\nThe Smurfs team up with their human friends to rescue Smurfette, who has been kidnapped by Gargamel since she knows a secret spell that can turn the evil sorcerer's newest creation - creatures called the Naughties - into real Smurfs. \n\n\n\nDirector:\n Raja Gosnell \n\nWriters:\n J. David Stem (screenplay), David N. Weiss (screenplay)\n\nStars:\n Hank Azaria, Neil Patrick Harris, Jayma Mays \n\nGenres:\n  Animation |  Comedy |  Family |  Fantasy \n\nCountry:\n USA \n\nLanguage:\n English | French \n\n\nSource: Chinese files, murder's audio\n\n\nFormat                                   : AVI\nFormat/Info                              : Audio Video Interleave\nFormat profile                           : OpenDML\nFormat settings                          : rec\nFile size                                : 1 007 MiB\nDuration                                 : 1h 40mn\nOverall bit rate                         : 1 398 Kbps\nWriting application                      : AVI-Mux GUI 1.17.8.3, Feb 16 201019:42:50\n\nVideo\nID                                       : 0\nFormat                                   : MPEG-4 Visual\nFormat profile                           : Simple@L1\nFormat settings, BVOP                    : No\nFormat settings, QPel                    : No\nFormat settings, GMC                     : No warppoints\nFormat settings, Matrix                  : Default (H.263)\nCodec ID                                 : XVID\nCodec ID/Hint                            : XviD\nDuration                                 : 1h 40mn\nBit rate                                 : 1 201 Kbps\nWidth                                    : 720 pixels\nHeight                                   : 416 pixels\nDisplay aspect ratio                     : 1.731\nFrame rate                               : 23.976 fps\nColor space                              : YUV\nChroma subsampling                       : 4:2:0\nBit depth                                : 8 bits\nScan type                                : Progressive\nCompression mode                         : Lossy\nBits/(Pixel*Frame)                       : 0.167\nStream size                              : 865 MiB (86%)\nWriting library                          : Lavc51.44.0\n\nAudio\nID                                       : 1\nFormat                                   : AC-3\nFormat/Info                              : Audio Coding 3\nMode extension                           : CM (complete main)\nFormat settings, Endianness              : Big\nCodec ID                                 : 2000\nDuration                                 : 1h 40mn\nBit rate mode                            : Constant\nBit rate                                 : 192 Kbps\nChannel(s)                               : 2 channels\nChannel positions                        : Front: L R\nSampling rate                            : 48.0 KHz\nBit depth                                : 16 bits\nCompression mode                         : Lossy\nStream size                              : 138 MiB (14%)\nAlignment                                : Aligned on interleaves\nInterleave, duration                     : 64 ms (1.53 video frames)\nInterleave, preload duration             : 192 ms\nTitle                                    : THE SMURFS 2 2013.R6.LINE-FANTA\n\n\n &lt;a href=&quot;\nhttp://bayimg.com/EApmlAaEl&quot; rel=&quot;nofollow&quot; target=&quot;_NEW&quot;&gt;\nhttp://bayimg.com/EApmlAaEl&lt;/a&gt; &lt;a href=&quot;\nhttp://bayimg.com/eaPMmaaeL&quot; rel=&quot;nofollow&quot; target=&quot;_NEW&quot;&gt;\nhttp://bayimg.com/eaPMmaaeL&lt;/a&gt;","torrent":{"xt":"urn:btih:96ac39b97bf054bfc23cb69dc964f7c93260c659","amp;dn":"THE+SMURFS-+2.+2013.%28NEW+SOURCE+TS+XViD%29.R6.LINE-FANTA","amp;tr":["udp%3A%2F%2Ftracker.openbittorrent.com%3A80","udp%3A%2F%2Fopen.demonii.com%3A1337","udp%3A%2F%2Ftracker.coppersurfer.tk%3A6969","udp%3A%2F%2Fexodus.desync.com%3A6969"],"infoHash":"96ac39b97bf054bfc23cb69dc964f7c93260c659","infoHashBuffer":{"type":"Buffer","data":[150,172,57,185,123,240,84,191,194,60,182,157,201,100,247,201,50,96,198,89]},"announce":[],"urlList":[]}}